<?xml version="1.0" standalone="no"?>
<!DOCTYPE svg PUBLIC "-//W3C//DTD SVG 20010904//EN"
 "http://www.w3.org/TR/2001/REC-SVG-20010904/DTD/svg10.dtd">
<svg version="1.0" xmlns="http://www.w3.org/2000/svg"
 width="864.000000pt" height="864.000000pt" viewBox="0 0 864.000000 864.000000"
 preserveAspectRatio="xMidYMid meet">
<metadata>
Created by potrace 1.11, written by Peter Selinger 2001-2013
</metadata>
<g transform="translate(0.000000,864.000000) scale(0.100000,-0.100000)"
fill="#000000" stroke="none">
<path d="M4143 8210 c-65 -14 -126 -44 -170 -84 -27 -24 -50 -36 -69 -36 -52
0 -297 -30 -374 -46 -513 -104 -940 -329 -1309 -688 -324 -317 -548 -690 -673
-1120 -78 -268 -97 -440 -105 -911 l-6 -370 -692 -1845 c-380 -1015 -702
-1871 -713 -1902 l-22 -58 238 0 237 0 329 803 c733 1787 986 2397 1034 2497
169 352 389 607 652 757 193 110 456 173 730 173 211 0 386 -49 556 -156 83
-52 221 -162 273 -218 l24 -26 237 0 237 0 24 26 c52 56 190 166 273 218 221
139 470 184 786 142 323 -43 562 -158 781 -376 145 -144 264 -318 371 -540 48
-100 301 -710 1034 -2497 l329 -803 237 0 238 0 -22 58 c-11 31 -333 887 -713
1902 l-692 1845 -6 370 c-8 471 -27 643 -105 911 -125 430 -349 803 -673 1120
-369 359 -796 584 -1309 688 -77 16 -322 46 -373 46 -19 0 -44 13 -74 40 -77
68 -133 83 -318 86 -88 2 -179 -1 -202 -6z m-340 -760 c31 -34 35 -75 12 -119
-19 -38 -52 -49 -175 -56 -365 -22 -714 -184 -965 -446 -250 -261 -390 -581
-411 -939 -7 -114 -18 -146 -55 -165 -44 -23 -85 -19 -121 14 l-33 29 3 114
c20 826 696 1531 1532 1598 145 11 179 6 213 -30z"/>
<path d="M3095 4969 c-273 -37 -527 -152 -696 -314 -63 -60 -102 -117 -145
-209 -58 -126 -86 -239 -88 -346 -1 -85 2 -100 26 -146 32 -60 93 -118 157
-148 45 -21 55 -21 751 -24 751 -3 791 -1 888 45 91 43 92 46 92 342 0 282 -6
324 -65 442 -91 180 -218 271 -470 335 -114 29 -328 40 -450 23z"/>
<path d="M5206 4970 c-145 -23 -302 -78 -394 -138 -101 -66 -201 -214 -236
-349 -13 -48 -16 -116 -16 -314 0 -296 1 -299 92 -342 97 -46 137 -48 888 -45
696 3 706 3 751 24 64 30 125 88 157 148 53 100 28 296 -62 492 -63 134 -133
215 -271 310 -135 92 -291 158 -463 194 -112 24 -354 34 -446 20z"/>
<path d="M4201 3764 c-221 -59 -361 -253 -361 -500 l0 -63 -475 -666 c-262
-366 -480 -665 -484 -665 -5 0 -219 368 -476 818 -257 449 -470 821 -474 825
-4 4 75 -486 176 -1090 l183 -1098 -27 -20 c-143 -106 -213 -240 -213 -410 0
-207 131 -383 330 -446 120 -38 264 -23 370 39 55 32 133 104 161 148 l21 34
1388 0 1388 0 21 -34 c12 -18 42 -53 69 -78 302 -283 792 -74 792 337 0 170
-70 304 -213 410 l-27 20 183 1098 c101 604 180 1094 176 1090 -4 -4 -213
-368 -464 -808 -252 -440 -464 -810 -472 -823 -14 -23 -29 -2 -494 648 l-479
671 0 63 c0 148 -46 271 -135 365 -120 126 -301 179 -464 135z m224 -243 c22
-10 55 -35 74 -56 58 -67 65 -93 66 -260 l0 -150 -245 0 -245 0 -3 119 c-3
147 9 213 51 268 42 55 75 78 134 94 55 15 110 10 168 -15z m135 -1661 l0
-720 -240 0 -240 0 0 720 0 720 240 0 240 0 0 -720z m-720 -95 l0 -625 -240 0
-240 0 0 301 0 302 236 323 c129 178 237 324 240 324 2 0 4 -281 4 -625z
m1204 301 l236 -323 0 -302 0 -301 -240 0 -240 0 0 625 c0 344 2 625 4 625 3
0 111 -146 240 -324z m-2475 -927 c166 -35 248 -232 156 -371 -120 -182 -399
-130 -444 82 -27 125 52 252 176 286 61 16 53 16 112 3z m3647 -14 c40 -16
101 -71 119 -105 76 -147 -6 -325 -165 -359 -130 -28 -264 61 -289 192 -36
192 154 347 335 272z"/>
</g>
</svg>
